PathFileType	4	(X/Y/Z)	C:/ViconProjects/foot_20160225/trc/P_3_test01_dynamic.trc
DataRate	CameraRate	NumFrames	NumMarkers	Units	OrigDataRate	OrigDataStartFrame	OrigNumFrames
120.000000	120.000000	8	39	mm	120.000000	1466	1954
Frame#	Time	LFWT			RFWT			VBWT			LKNE			LANK			LMT5			LMT1			LHEL			LTOE			RKNE			RANK			RMT5			RMT1			RHEL			RTOE			T10			FHEAD			THEAD			RHEAD			LBSH			LELB			LOWR			RBSH			RELB			ROWR			LTHI			RTHI			LSHAN			RSHAN			LIHEL			LOHEL			RIHEL			ROHEL			LMT3			LNAVI			LCUNE			RMT3			RNAVI			RCUNE			
		X0	Y0	Z0	X1	Y1	Z1	X2	Y2	Z2	X3	Y3	Z3	X4	Y4	Z4	X5	Y5	Z5	X6	Y6	Z6	X7	Y7	Z7	X8	Y8	Z8	X9	Y9	Z9	X10	Y10	Z10	X11	Y11	Z11	X12	Y12	Z12	X13	Y13	Z13	X14	Y14	Z14	X15	Y15	Z15	X16	Y16	Z16	X17	Y17	Z17	X18	Y18	Z18	X19	Y19	Z19	X20	Y20	Z20	X21	Y21	Z21	X22	Y22	Z22	X23	Y23	Z23	X24	Y24	Z24	X25	Y25	Z25	X26	Y26	Z26	X27	Y27	Z27	X28	Y28	Z28	X29	Y29	Z29	X30	Y30	Z30	X31	Y31	Z31	X32	Y32	Z32	X33	Y33	Z33	X34	Y34	Z34	X35	Y35	Z35	X36	Y36	Z36	X37	Y37	Z37	X38	Y38	Z38	
1466	12.216667	-254.827290	146.221830	946.850590	-276.043980	-137.230500	936.388430	-489.694460	23.295940	968.905150	-223.616290	208.748110	490.549800	-388.655400	177.865010	114.900640	-313.057620	212.794240	39.389640	-253.076320	150.161590	39.860480	-437.996430	110.678460	123.152780	-224.504910	168.013520	29.685420	-252.064530	-201.120510	483.777950	-388.983830	-173.466000	112.097790	-307.173220	-208.420940	33.877060	-248.142140	-139.411360	43.019670	-439.682890	-96.228290	109.513260	-211.417480	-160.949110	31.821490	-384.535340	53.625620	1305.005740	-58.920610	-22.350800	1647.425420	-177.334460	-25.980910	1720.371830	-279.954190	-22.945760	1642.349850	-209.722180	141.428020	1461.322020	6.512900	327.285710	1361.139770	132.567060	217.580830	1553.548950	-213.931110	-178.550660	1454.204100	34.994450	-325.508330	1382.521970	128.393950	-222.036960	1597.598270	-165.852420	156.223460	666.347470	-188.348600	-167.223330	608.850520	-229.757480	136.328980	343.617000	-277.778960	-125.790410	255.273830	-396.820400	87.587320	109.319690	-423.268860	156.586260	110.454340	-394.145050	-77.733300	99.844180	-423.789790	-146.517320	96.055320	-270.428380	187.361740	40.742590	-323.253050	97.681660	80.311600	-365.808960	194.175460	65.240440	-262.358670	-175.767070	37.195110	-323.139280	-94.546420	84.949730	-362.958190	-187.691020	56.971200
1467	12.225000	-247.177230	146.520420	972.576420	-267.527770	-137.345310	961.236390	-482.155850	22.183230	991.031310	-238.493410	208.300570	508.400210	-384.041050	183.192930	122.176360	-310.668060	214.360080	40.205860	-252.162080	150.881590	40.199630	-431.727910	116.297810	134.531590	-224.318820	168.094500	29.805900	-266.440060	-198.042710	501.758210	-385.214720	-178.748250	121.766530	-305.465090	-209.133330	34.273610	-246.406130	-140.456380	43.640380	-433.079070	-102.123360	122.796610	-211.060880	-160.523090	32.025390	-385.248600	53.608940	1326.951170	-57.465230	-20.400940	1667.738650	-173.142810	-25.304300	1744.774410	-278.434230	-23.175530	1670.841800	-215.828020	142.914310	1487.192020	1.777060	330.538970	1386.078610	121.117610	221.503690	1583.582030	-218.861240	-179.200640	1480.078250	29.571420	-329.235260	1410.969120	108.429560	-223.613860	1630.522950	-170.970840	157.478840	680.537050	-197.647610	-164.589970	623.113280	-237.305770	138.971800	359.828770	-279.507570	-128.612990	269.542050	-389.942080	92.875070	120.086050	-415.764650	160.238400	118.267920	-387.980350	-83.469400	112.125990	-417.892180	-151.620350	107.157280	-268.708100	188.325160	41.110570	-318.953250	102.273740	87.240400	-361.303740	197.783620	69.862370	-260.702240	-176.982090	37.523590	-318.536040	-99.387140	93.713340	-358.918490	-191.228790	61.852110
1468	12.233333	-239.780150	146.310410	998.837160	-259.040800	-137.130080	986.844060	-474.620700	20.996050	1014.257870	-253.991040	207.133900	527.687190	-377.729610	189.740260	131.982700	-306.801820	217.341450	42.480520	-248.525910	152.644270	42.857600	-422.798100	124.101100	149.134490	-224.238970	168.634890	29.339280	-281.992460	-194.536760	521.761350	-379.528990	-185.318020	133.165650	-303.361050	-210.475420	35.779360	-243.743190	-142.532180	46.211230	-424.672820	-109.207940	138.886320	-211.324950	-159.845980	32.187620	-386.736270	52.457070	1348.868410	-58.254360	-18.701770	1687.885130	-168.587940	-24.790140	1768.927000	-276.561070	-23.190900	1698.827880	-221.904310	144.408910	1512.009160	-3.214030	332.908690	1409.197880	110.193270	226.040630	1611.316770	-223.825000	-179.612350	1505.563840	25.308010	-332.975560	1437.991460	87.731960	-224.613780	1660.575320	-177.755360	156.760760	695.812680	-205.235670	-159.110320	638.951780	-244.919190	140.927860	377.775730	-280.633450	-131.747340	286.034730	-382.016510	99.905740	134.727130	-408.220580	167.661090	130.021320	-379.620000	-90.175160	127.492490	-410.696080	-157.760590	120.294040	-265.979000	190.706120	42.387680	-312.763120	108.283700	97.860210	-355.703490	203.061100	76.835680	-258.960880	-178.699840	38.774750	-312.531680	-105.892520	105.238110	-354.543400	-195.724080	68.585370
1469	12.241667	-232.891540	146.854740	1025.479490	-250.850520	-136.947780	1012.785710	-466.708130	20.004080	1037.917480	-269.283200	204.949780	547.486760	-369.350980	197.908400	145.430820	-302.819430	220.338150	47.770530	-243.919240	156.353670	47.109930	-413.684390	134.024750	166.117710	-224.121950	168.458310	30.458510	-295.395900	-189.169850	542.756350	-371.230500	-192.519380	147.364940	-299.994050	-212.694260	40.731970	-238.480550	-146.467180	49.982810	-414.517520	-117.351740	158.201480	-211.652390	-160.296810	33.208240	-387.345520	51.500310	1370.989500	-54.337390	-17.841550	1706.505250	-164.404970	-23.906190	1791.886960	-274.226900	-22.834480	1725.677610	-227.623290	145.776230	1535.787600	-8.580040	336.218840	1431.038700	99.414330	230.022110	1637.251590	-228.169770	-180.105010	1530.182130	21.145920	-337.031190	1464.031370	69.406490	-226.034550	1689.038450	-183.892230	154.297350	711.476200	-212.305480	-152.161940	656.319700	-252.681340	141.900100	397.390840	-281.262480	-135.106870	304.641360	-373.530730	108.225030	151.700100	-399.679140	176.275710	144.592160	-370.169530	-97.960850	145.312410	-402.014710	-164.888630	136.800550	-259.264710	194.029450	46.726280	-305.734560	115.087950	111.663290	-348.808620	209.225480	87.392880	-255.718460	-181.995830	42.529730	-303.684270	-113.390940	119.498370	-349.438170	-199.925870	79.686510
1470	12.250000	-226.663510	146.792020	1051.578980	-242.737990	-136.811780	1038.690060	-459.471890	19.180110	1061.725590	-284.233980	202.281570	568.166080	-358.772000	207.068860	162.657530	-293.958830	224.994310	57.019020	-239.097140	162.385730	52.311880	-400.548710	143.757690	186.113450	-223.040770	170.523330	30.605940	-308.145870	-183.746410	563.415770	-360.196960	-199.273670	165.917650	-293.863220	-216.304820	49.284210	-230.776860	-152.897380	57.701230	-402.213470	-123.396770	180.681020	-209.322330	-164.381610	31.493500	-386.856660	50.057730	1393.042850	-53.524820	-16.240300	1724.001340	-159.325470	-23.140160	1813.568360	-272.267030	-22.489980	1751.386960	-233.502180	146.797790	1558.276860	-13.431750	338.853180	1451.346560	88.760660	233.728550	1661.325930	-232.530820	-180.787250	1553.498290	17.229430	-340.472140	1488.349370	51.431290	-227.428570	1714.802610	-190.075940	150.615480	727.776730	-220.048710	-144.655460	673.350460	-259.316620	142.809710	418.825410	-279.470700	-137.789440	325.561650	-361.900880	117.036960	171.455810	-388.261050	184.655430	162.027860	-357.864440	-104.521870	166.421840	-390.925600	-170.895870	156.527340	-257.068300	198.894450	50.839750	-296.335750	123.213670	129.125500	-340.593540	215.596080	101.721130	-247.126540	-188.302050	50.811080	-292.846040	-121.193510	136.551940	-340.981600	-205.115780	95.953870
1471	12.258333	-220.988880	146.900700	1076.865360	-235.274400	-136.196270	1064.227660	-452.491610	18.472770	1085.901250	-298.295380	199.501050	589.237610	-349.357450	215.494420	183.592290	-288.481900	228.888980	68.610920	-231.536710	171.660460	64.633670	-387.416140	149.744840	207.883350	-218.078800	176.866590	34.429860	-319.847440	-180.204770	584.287480	-351.744080	-203.537960	188.946470	-288.279360	-217.548550	64.427080	-225.546690	-162.184920	71.334850	-389.654110	-128.387480	204.154080	-206.621030	-172.523830	32.833900	-386.722470	48.609460	1414.710690	-53.032550	-14.735250	1741.019170	-155.409190	-22.186110	1833.668330	-270.175170	-21.949560	1775.308720	-238.532590	148.219130	1579.867190	-18.794140	341.947970	1470.455080	79.188070	237.283570	1683.817260	-237.421750	-180.852690	1575.222780	13.207420	-344.345760	1511.587890	33.892500	-229.267030	1739.138920	-196.671780	147.129390	743.737180	-227.429410	-139.130860	691.095090	-264.305270	143.688710	441.785980	-278.402560	-139.003540	348.298770	-347.370760	124.114940	193.202160	-378.325040	192.332670	182.633730	-345.775420	-109.457490	187.090960	-381.538510	-174.825760	178.619600	-257.376560	204.145320	54.920990	-281.458370	133.292110	149.666090	-331.042760	221.230800	119.026050	-245.810590	-193.403720	61.486970	-283.051330	-128.092480	157.233520	-332.606200	-208.876720	116.710070
1472	12.266667	-216.160710	146.021900	1100.801270	-230.100310	-135.677900	1088.767700	-446.323210	17.599840	1109.859250	-309.940610	198.429630	610.485960	-345.248110	218.140400	202.510830	-284.181060	235.553630	88.696170	-226.875230	182.189740	83.251930	-380.567440	150.664020	225.448720	-216.088730	186.459670	43.914810	-325.828740	-179.405460	604.713560	-351.369320	-203.089200	208.959920	-288.784120	-221.330950	85.967570	-226.208310	-169.054090	90.041110	-387.368130	-126.557930	222.590590	-212.048720	-181.690570	44.556020	-386.091490	47.656520	1435.625370	-52.135390	-13.605390	1757.112180	-152.115830	-21.010960	1852.770020	-268.244420	-21.104350	1797.337280	-243.275100	149.530150	1599.652470	-24.341370	345.869050	1488.536620	69.226360	240.715930	1704.986450	-240.911590	-180.407140	1595.927120	9.025050	-348.108220	1533.991700	18.608330	-231.436400	1761.743770	-202.805540	143.271900	759.793090	-231.194090	-136.421080	708.858460	-267.980800	144.252550	464.944550	-278.185210	-138.847120	370.082980	-338.156710	128.411070	213.261090	-376.210720	196.035660	206.188230	-343.043520	-109.211020	206.406480	-380.978270	-174.124940	197.808000	-249.942050	210.287450	73.292860	-270.100070	141.349530	172.666810	-325.731780	225.109660	138.810910	-246.854130	-196.239070	81.733360	-281.106480	-129.409560	177.036710	-331.092350	-208.527560	137.976520
1473	12.275000	-212.789060	144.487430	1123.311400	-226.219590	-134.887820	1111.438840	-441.856080	16.858770	1134.375610	-311.082030	198.531050	630.838620	-345.098390	217.501420	220.742200	-285.650910	239.106080	108.518210	-219.825530	187.059830	105.483910	-380.689120	149.865310	241.388060	-210.104250	192.304320	67.593510	-322.065730	-179.170170	624.482790	-355.766940	-199.643520	227.327420	-294.037510	-221.233430	103.864820	-229.074830	-166.883900	109.747600	-392.220890	-122.346260	238.733400	-209.668000	-177.021930	66.269670	-385.387570	46.299240	1456.143550	-50.754190	-12.592330	1772.544190	-149.342150	-19.965720	1870.090450	-266.368010	-19.859840	1817.318480	-246.981600	151.507950	1618.356930	-28.661690	348.856080	1505.810300	60.707340	244.560210	1724.438230	-244.102840	-179.785580	1615.500730	5.702430	-351.956630	1555.252560	5.367150	-233.260180	1783.070070	-207.183240	139.952180	775.525510	-230.115310	-136.963520	725.909180	-268.790830	145.245800	485.192170	-278.720310	-137.626110	389.094480	-337.434910	128.243320	230.902650	-371.914950	191.437240	216.946400	-347.145230	-105.293340	224.326720	-385.703640	-170.001860	214.069440	-247.267880	215.669600	94.792620	-268.685850	144.790450	193.250210	-326.854030	226.453130	157.212050	-249.307530	-195.690140	102.152500	-284.892060	-126.841880	194.698500	-336.389370	-206.857350	155.948170
